<?xml version="1.0" encoding="UTF-8"?>
<svg xmlns="http://www.w3.org/2000/svg" xmlns:xlink="http://www.w3.org/1999/xlink" viewBox="0 0 360 381.02">
  <defs>
    <style>
      .cls-1 {
        fill: #d3acd1;
        filter: url(#drop-shadow-7);
      }

      .cls-2 {
        fill: #fdd18b;
        filter: url(#drop-shadow-6);
      }

      .cls-3 {
        fill: #b2b2b2;
      }

      .cls-4 {
        fill: #efabcd;
        filter: url(#drop-shadow-3);
      }

      .cls-5, .cls-6, .cls-7 {
        fill: #fcd9c0;
      }

      .cls-8 {
        fill: #617cbd;
        filter: url(#drop-shadow-1);
      }

      .cls-6 {
        filter: url(#drop-shadow-4);
      }

      .cls-9 {
        fill: none;
        opacity: .5;
        stroke: #e6007e;
        stroke-miterlimit: 10;
      }

      .cls-7 {
        filter: url(#drop-shadow-5);
      }

      .cls-10 {
        fill: #d1b4d7;
      }

      .cls-11 {
        fill: #bdce9e;
      }

      .cls-12 {
        fill: #98d5ee;
        filter: url(#drop-shadow-8);
      }

      .cls-13 {
        fill: #e2f2f1;
      }

      .cls-14 {
        fill: #cfe2ac;
        filter: url(#drop-shadow-2);
      }
    </style>
    <filter id="drop-shadow-1" filterUnits="userSpaceOnUse">
      <feOffset dx="7" dy="7"/>
      <feGaussianBlur result="blur" stdDeviation="5"/>
      <feFlood flood-color="#1d1d1b" flood-opacity=".2"/>
      <feComposite in2="blur" operator="in"/>
      <feComposite in="SourceGraphic"/>
    </filter>
    <filter id="drop-shadow-2" filterUnits="userSpaceOnUse">
      <feOffset dx="7" dy="7"/>
      <feGaussianBlur result="blur-2" stdDeviation="5"/>
      <feFlood flood-color="#1d1d1b" flood-opacity=".2"/>
      <feComposite in2="blur-2" operator="in"/>
      <feComposite in="SourceGraphic"/>
    </filter>
    <filter id="drop-shadow-3" filterUnits="userSpaceOnUse">
      <feOffset dx="7" dy="7"/>
      <feGaussianBlur result="blur-3" stdDeviation="5"/>
      <feFlood flood-color="#1d1d1b" flood-opacity=".2"/>
      <feComposite in2="blur-3" operator="in"/>
      <feComposite in="SourceGraphic"/>
    </filter>
    <filter id="drop-shadow-4" filterUnits="userSpaceOnUse">
      <feOffset dx="7" dy="7"/>
      <feGaussianBlur result="blur-4" stdDeviation="5"/>
      <feFlood flood-color="#1d1d1b" flood-opacity=".2"/>
      <feComposite in2="blur-4" operator="in"/>
      <feComposite in="SourceGraphic"/>
    </filter>
    <filter id="drop-shadow-5" filterUnits="userSpaceOnUse">
      <feOffset dx="7" dy="7"/>
      <feGaussianBlur result="blur-5" stdDeviation="5"/>
      <feFlood flood-color="#1d1d1b" flood-opacity=".2"/>
      <feComposite in2="blur-5" operator="in"/>
      <feComposite in="SourceGraphic"/>
    </filter>
    <filter id="drop-shadow-6" filterUnits="userSpaceOnUse">
      <feOffset dx="7" dy="7"/>
      <feGaussianBlur result="blur-6" stdDeviation="5"/>
      <feFlood flood-color="#1d1d1b" flood-opacity=".2"/>
      <feComposite in2="blur-6" operator="in"/>
      <feComposite in="SourceGraphic"/>
    </filter>
    <filter id="drop-shadow-7" filterUnits="userSpaceOnUse">
      <feOffset dx="7" dy="7"/>
      <feGaussianBlur result="blur-7" stdDeviation="5"/>
      <feFlood flood-color="#1d1d1b" flood-opacity=".2"/>
      <feComposite in2="blur-7" operator="in"/>
      <feComposite in="SourceGraphic"/>
    </filter>
    <filter id="drop-shadow-8" filterUnits="userSpaceOnUse">
      <feOffset dx="7" dy="7"/>
      <feGaussianBlur result="blur-8" stdDeviation="5"/>
      <feFlood flood-color="#1d1d1b" flood-opacity=".2"/>
      <feComposite in2="blur-8" operator="in"/>
      <feComposite in="SourceGraphic"/>
    </filter>
  </defs>
  <g id="Circle">
    <circle class="cls-13" cx="184.11" cy="208.69" r="149.68"/>
  </g>
  <g id="Women_s_face" data-name="Women´s face">
    <path class="cls-8" d="m102.57,229.12c3,7.78-.56,11.91,2.7,21.86,1.14,3.48,1.18,5.48,1.25,9.5.05,2.81-.21,4.38-1.28,5.36-1.55,1.42-4.06.95-5.36.77-.54-.08-5.89.71-16.6,2.3-11.76,1.74-11.21,2.31-16.95,2.71-7.65.54-12.82.9-14.71-1.94-1.74-2.62,1.13-5.23,2.33-12.97,1.17-7.57-.95-9.1-.54-17.41.3-6.11.61-12.36,4.4-17.55,5.76-7.9,18.07-11.27,28.28-7.98,7.81,2.51,13.93,8.77,16.47,15.37Z"/>
  </g>
  <g id="Women">
    <path class="cls-14" d="m34.6,358.42c-4.04-25.8-2.38-46.29,2.38-55.83,4.11-8.24,10.21-11.91,10.21-11.91,1.74-1.05,4.91-2.96,9.19-3.06,8.71-.22,15.02,7.19,17.02,9.53,5.89,6.91,4.92,11.68,7.83,12.26,7,1.38,13.45-26.02,24.17-25.87,5.63.08,9.76,7.72,12.88,13.48,3.04,5.63,5.45,12.7,6.87,35.88.39,6.38.76,14.93.77,25.1"/>
    <path class="cls-11" d="m49.61,323.01c2.19-.17,3.69,2.34,3.74,4.54s-.75,4.37-.57,6.56c.13,1.49.7,2.91,1.06,4.36,1.59,6.49-1.31,13.6.89,19.91"/>
    <path class="cls-11" d="m108.48,327.86c.59-.27,1.31.12,1.62.68s.34,1.24.35,1.88c.16,9.22.32,18.43.47,27.65"/>
    <path class="cls-10" d="m90.7,275.56c1.5.7,3,1.39,4.5,2.09,2.11.94,4.77,2.56,5.44,5.19.87,3.44-2.37,5.89-9.02,14.61-6.66,8.73-8.01,12.3-10.38,11.94-2.4-.37-1.72-4.12-6.47-10.54-2.43-3.27-5.32-7.19-10.38-9.63-2.86-1.39-4.68-1.46-5.36-3.06-1.04-2.42,1.54-5.87,4.01-8.51v-1.7c4.53,2.43,8.07,4.69,10.55,6.38,3.75,2.56,4.86,3.65,6.89,3.57,3.8-.14,7.11-3.42,8.68-6.13.95-1.64,1.36-3.19,1.55-4.22Z"/>
    <path class="cls-3" d="m80.01,291.18l-19.92-9.83c1.6-2.14,3.2-4.29,4.81-6.43,5.74,3.06,11.48,6.13,17.22,9.19-.7,2.35-1.4,4.71-2.1,7.06Z"/>
    <path class="cls-3" d="m98.73,279.85c-3.98,3.36-7.97,6.73-11.95,10.09l-3.95-4.68c2.62-3.23,5.25-6.46,7.87-9.7,2.68,1.43,5.35,2.86,8.03,4.29Z"/>
    <rect class="cls-3" x="81.93" y="287.95" width="1.79" height="19.66"/>
    <path class="cls-5" d="m95.02,242.76c3.5,4.74,2,13.61-2.47,18.4-2.16,2.31-3.33,1.88-4.17,3.81-1.94,4.47,3.66,8.26,2.11,13.41-.9,2.99-3.83,5.18-6.46,5.79-1.07.25-2.61.35-11.48-4.14-6.77-3.43-7.36-4.23-7.66-5.11-1.21-3.52,2.96-5.89,1.79-9.96-.82-2.87-3.15-2.58-4.85-6.13-1.19-2.48-1.69-6.01-.51-8.94,1.74-4.32,5.54-3.36,10.98-8.43,5.56-5.18,5.67-9.98,8.68-9.96,2.2.02,2.52,2.59,7.91,6.89,4.06,3.24,4.75,2.47,6.13,4.34Z"/>
  </g>
  <g id="Men">
    <path class="cls-4" d="m166.77,270.59s-25.28,1.53-26.55,48.26h-2.3v7.4h20.94l1.53,32.17h47.23v-32.94l19.91-.77v-9.19l-1.79.26s6.38-44.43-29.11-45.19l-5.11-5.36h-19.4l-5.36,5.36Z"/>
    <path class="cls-9" d="m222.17,315.78h-12"/>
    <path class="cls-9" d="m225.48,316.36c-1.98-.06-3.97-.12-5.95-.05-4.31.16-8.6.94-12.68,2.33"/>
    <path class="cls-9" d="m145.77,318.14c.9,1.31,2.64,1.74,4.23,1.76s3.2-.24,4.76.09c.59.12,1.17.34,1.77.35s0,1.19.27.65c-1.79-.19-3.58-.37-5.38-.56-1.06-.11-2.19-.21-3.14.28-.25.13-.5.3-.79.33-.25.02-.49-.07-.71-.17-1.45-.63-2.79-1.52-3.94-2.61"/>
    <path class="cls-9" d="m197.11,271.11c-5.8-1-25.11-.19-29.06-.25"/>
    <path class="cls-6" d="m142.85,327.77s-1.1,26-1.36,29.11,15.31,1.53,15.31,1.53v-30.65c-14,1-13.95,0-13.95,0Z"/>
    <path class="cls-7" d="m210.17,326.5s0,19.15,3.83,31.91l11.48.4v-32.32h-15.31Z"/>
    <path class="cls-5" d="m160.38,223.35c.19,2.6.46,7.01.51,12.51.11,11.61-.85,16.61,2.33,19.24,1.08.89,3.27,2.03,7.88,1.19.43,2.64.85,5.28,1.28,7.91h19.15l-2.04-10.47c-1.47-.75-3.46-2.04-5.14-4.21-4.64-6.02-2.82-13.53-2.52-14.68.4-3.64-.65-5.9-1.27-6.95-3.06-5.18-11.31-7.37-20.18-4.54Z"/>
    <path class="cls-2" d="m159.02,222.11s-8.85-1.73,1.53-15.18l.85,5.57,3.06-5.57.68,5.57s22.98-9.31,35.57,14.86c0,0,4.94,20.09-10.38,25.36,0,0-9.06-.34-7.77-17.7,0,0,2.66-18.32-23.55-12.9Z"/>
  </g>
  <g id="Ballons">
    <path class="cls-1" d="m136.38,164.63c.18,4.76-.59,10.06-1.28,14.81-.97,6.7-1.46,10.06-3.06,12.77-4.64,7.83-13.74,10.56-14.3,10.72-2.54.73-2.66.27-3.76.97-3.82,2.42-2.63,8-6.45,17.16-1.26,3.02-2.36,4.73-2.81,4.6-1.09-.33,3.33-10.95-1.28-15.83-1.02-1.08-2.16-1.53-4.09-2.3-4.65-1.85-8.85-1.45-10.72-1.28-5.69.52-11.48.28-17.11,1.28-5.81,1.02-33.6,5.92-42.38-5.36-5.29-6.79-2.41-17.81,1.28-31.91,1.66-6.35,2.95-11.09,6.64-16.34,5.54-7.89,12.65-11.44,21.19-15.57,5.73-2.77,14.64-7,27.16-8.45,12.34-1.43,27.37-3.17,38.58,6.55,11.47,9.94,12.3,26.09,12.38,28.2Z"/>
    <path class="cls-12" d="m327.36,172.03c.36,2.6,2.07,17.1-7.4,27.83-10.26,11.62-27.23,11.54-36.26,11.49-9.81-.05-14.63-2.24-33.7-2.55-8.93-.15-11.33.28-13.9,1.41-9.49,4.19-10.53,13.3-19.04,14.67-4.79.77-9.4-1.31-9.45-2.55-.05-1.28,4.76-1.44,5.87-4.6.87-2.47-1.11-5.14-1.28-5.36-1.8-2.36-4.72-2.92-5.36-3.06-6.94-1.54-40.16-19.56-41.11-39.96-.53-11.47,9.29-20.65,13.28-24.38,7.36-6.89,14.83-9.1,26.3-12.51,4.18-1.24,19.09-5.43,39.45-5.11,2.95.05,14.98.33,30.51,3.83,14.85,3.35,22.74,5.13,31.4,11.23,5.19,3.66,18.39,12.96,20.68,29.62Z"/>
  </g>
</svg>